<svg width="32" height="30" viewBox="0 0 32 30" fill="none" xmlns="http://www.w3.org/2000/svg">
<path d="M30.236 21.9679C29.9804 21.6299 29.6599 21.3463 29.2934 21.1336C28.927 20.9209 28.5218 20.7834 28.1015 20.7291C26.4918 20.4991 25.0385 19.6413 24.0592 18.3431C23.08 17.0449 22.6544 15.4119 22.8755 13.8009C22.9602 13.1783 22.8591 12.5445 22.5848 11.9792C22.3105 11.4139 21.8754 10.9422 21.3339 10.6234C20.7924 10.3047 20.1688 10.153 19.5414 10.1875C18.914 10.222 18.3108 10.441 17.8075 10.8172C17.3043 11.1934 16.9234 11.7099 16.7126 12.3018C16.502 12.8938 16.4709 13.5348 16.6233 14.1444C16.7757 14.7539 17.1049 15.3049 17.5694 15.728C18.0339 16.1511 18.6131 16.4276 19.2342 16.5226C20.0365 16.6318 20.8094 16.8982 21.5085 17.3067C22.2077 17.7151 22.8193 18.2575 23.3085 18.9028C23.7976 19.5481 24.1545 20.2836 24.3588 21.0671C24.5632 21.8506 24.6108 22.6668 24.4991 23.4688C24.4365 23.985 24.5011 24.5086 24.6873 24.9941C24.8735 25.4795 25.1756 25.9121 25.5673 26.2541C25.959 26.596 26.4283 26.837 26.9344 26.956C27.4406 27.0751 27.9681 27.0684 28.4712 26.9369C28.9742 26.8053 29.4374 26.5526 29.8204 26.201C30.2034 25.8494 30.4946 25.4094 30.6686 24.9194C30.8426 24.4294 30.8942 23.9044 30.8188 23.3899C30.7434 22.8755 30.5433 22.3873 30.236 21.9679Z" fill="url(#paint0_linear_2_51)"/>
<path d="M10.4005 20.1378C10.9825 20.3928 11.6274 20.4681 12.2524 20.354C12.8775 20.2399 13.4542 19.9417 13.9086 19.4976C14.363 19.0534 14.6743 18.4837 14.8026 17.8614C14.9309 17.2391 14.8704 16.5927 14.6287 16.005C14.322 15.2556 14.1663 14.453 14.1704 13.6432C14.1745 12.8335 14.3383 12.0325 14.6527 11.2862C14.9669 10.54 15.4254 9.86304 16.0018 9.29428C16.5782 8.72552 17.2612 8.27618 18.0116 7.97191C18.5933 7.73268 19.0912 7.32673 19.4428 6.80516C19.7943 6.2836 19.9837 5.6697 19.9872 5.04072C19.9906 4.41174 19.808 3.79578 19.4622 3.27041C19.1164 2.745 18.6229 2.33361 18.0439 2.08803C17.4648 1.84245 16.8261 1.77359 16.208 1.8902C15.5899 2.00677 15.0201 2.30355 14.5703 2.74323C14.1205 3.18287 13.8108 3.74576 13.6801 4.36102C13.5495 4.97627 13.6038 5.61643 13.8361 6.20092C14.4437 7.70919 14.4291 9.39679 13.7954 10.8943C13.1617 12.3918 11.9606 13.5772 10.4549 14.1912C9.85944 14.4214 9.34677 14.825 8.98329 15.3498C8.61981 15.8747 8.42223 16.4965 8.41617 17.1349C8.41014 17.7732 8.59587 18.3987 8.94933 18.9303C9.3028 19.462 9.8077 19.8752 10.3987 20.1166L10.4005 20.1378Z" fill="url(#paint1_linear_2_51)"/>
<path d="M18.5293 18.9092C18.1082 18.9607 17.7017 19.0957 17.3335 19.3063C16.9653 19.5169 16.6428 19.7988 16.3849 20.1355C15.3818 21.4142 13.9133 22.2437 12.3005 22.4428C10.6875 22.6418 9.06142 22.1941 7.77765 21.1976C7.4456 20.9362 7.06492 20.7434 6.6577 20.6304C6.25052 20.5174 5.82491 20.4865 5.40565 20.5395C4.88995 20.6089 4.39903 20.8035 3.97582 21.1062C3.55257 21.4089 3.20991 21.8107 2.97768 22.2763C2.74542 22.742 2.6307 23.2574 2.64345 23.7776C2.65625 24.2978 2.79613 24.8069 3.05097 25.2607C3.3058 25.7143 3.66777 26.0988 4.10535 26.3804C4.54293 26.662 5.04275 26.8322 5.56124 26.8762C6.07973 26.9202 6.60114 26.8366 7.07989 26.6327C7.55868 26.4289 7.98025 26.1109 8.30783 25.7066C8.80397 25.0662 9.42156 24.5299 10.1252 24.1285C10.829 23.7272 11.6049 23.4685 12.4087 23.3675C13.2125 23.2666 14.0284 23.3251 14.8095 23.5399C15.5907 23.7547 16.3218 24.1215 16.9609 24.6193C17.3762 24.9338 17.8622 25.1417 18.3764 25.2249C18.8907 25.3081 19.4174 25.2641 19.9107 25.0966C20.404 24.9291 20.8486 24.6434 21.2059 24.2643C21.5632 23.8852 21.8221 23.4243 21.9601 22.922C22.0981 22.4197 22.1109 21.8912 21.9974 21.3828C21.8839 20.8744 21.6475 20.4016 21.309 20.0056C20.9705 19.6097 20.5401 19.3028 20.0556 19.1116C19.571 18.9205 19.0469 18.851 18.5293 18.9092Z" fill="url(#paint2_linear_2_51)"/>
<defs>
<linearGradient id="paint0_linear_2_51" x1="22.9331" y1="9.89137" x2="24.4475" y2="27.332" gradientUnits="userSpaceOnUse">
<stop stop-color="#DD7EFF"/>
<stop offset="0.461458" stop-color="#685DFF"/>
<stop offset="1" stop-color="#2152FF"/>
</linearGradient>
<linearGradient id="paint1_linear_2_51" x1="13.4221" y1="2.11616" x2="14.9863" y2="20.1307" gradientUnits="userSpaceOnUse">
<stop stop-color="#DD7EFF"/>
<stop offset="0.461458" stop-color="#685DFF"/>
<stop offset="1" stop-color="#2152FF"/>
</linearGradient>
<linearGradient id="paint2_linear_2_51" x1="12.0614" y1="19.4698" x2="12.6551" y2="26.307" gradientUnits="userSpaceOnUse">
<stop stop-color="#DD7EFF"/>
<stop offset="0.461458" stop-color="#685DFF"/>
<stop offset="1" stop-color="#2152FF"/>
</linearGradient>
</defs>
</svg>
